<?xml version="1.0" ?><!DOCTYPE svg  PUBLIC '-//W3C//DTD SVG 1.1//EN'  'http://www.w3.org/Graphics/SVG/1.1/DTD/svg11.dtd'><svg height="512px" style="enable-background:new 0 0 512 512;" version="1.1" viewBox="0 0 512 512" width="512px" xml:space="preserve" xmlns="http://www.w3.org/2000/svg" xmlns:xlink="http://www.w3.org/1999/xlink"><g id="facebook__x2C__social__x2C__media_x2C__icon_x2C_"><g><g><path d="M431.023,34.501c-116.684-4.667-233.367-9.335-350.05-14.002     C47.779,19.11,21.39,45.469,22.402,79.002c3.398,117.816,6.797,235.631,10.195,353.447C33.61,465.983,60,492.404,91.168,491.094     c109.887-4.396,219.773-8.791,329.66-13.187c31.171-1.312,57.562-27.67,58.574-58.503     c3.398-108.753,6.797-217.506,10.195-326.259C490.61,62.312,464.219,35.89,431.023,34.501z M324.004,232.444     c-0.802,7.875-1.602,15.753-2.399,23.635c-15.203-0.018-30.407-0.037-45.61-0.055c-0.18,68.31-0.399,151.799-0.399,151.8     c-19.905,0.517-39.811,1.034-59.715,1.552c0-0.001-0.445-83.426-0.819-153.425c-10.156-0.012-20.311-0.024-30.467-0.036     c-0.076-8.152-0.151-16.303-0.227-24.455c-0.115-12.414-0.23-24.827-0.345-37.24c10.237,0.121,20.474,0.241,30.71,0.361     c-0.049-9.281-0.099-18.563-0.148-27.845c-0.159-25.167,11.753-64.161,65.171-62.614c16.036,0.51,32.071,1.019,48.107,1.528     c-0.162,17.233-0.323,34.466-0.484,51.699c0,0-29.096-0.537-34.728-0.641c-5.642-0.106-13.513,2.413-13.546,14.244     c-0.024,8.128-0.049,16.257-0.073,24.385c16.233,0.191,32.466,0.382,48.699,0.573     C326.483,208.081,325.241,220.259,324.004,232.444z" style="fill:none;"/><g><g><g><path d="M321.355,232.175c0.292,0.534,1.098,0.331,1.085-1.062L321.223,230L321.355,232.175z" style="fill:#373737;"/><path d="M324.741,223.152c-0.473-1.685-1.404-3.668-2.721-2.742c1.102,1.733,0.534,2.068,1.864,3.95        c0.013,1.396-0.668,2.363-1.129,2.082c0.288,0.521-0.508,2.112,0.244,2.938c1.202-1.69,1.475-3.958,0.875-6.418        C324.217,222.482,324.511,223.011,324.741,223.152z" style="fill:#373737;"/><path d="M305.148,158.794l-0.869-0.173C304.516,158.712,304.813,158.765,305.148,158.794z" style="fill:#373737;"/><path d="M317.95,102.752c0.64-0.012,0.909-0.134,0.946-0.253        C318.301,102.567,317.812,102.632,317.95,102.752z" style="fill:#373737;"/><path d="M303.679,100.839c0.306,0.042,0.563,0.078,0.842,0.117        C304.202,100.824,303.88,100.746,303.679,100.839z" style="fill:#373737;"/><path d="M305.148,158.794l2.233,0.457C307.547,158.822,306.239,158.91,305.148,158.794z" style="fill:#373737;"/><path d="M323.46,204.25c0.017,0.473,0.1,0.874,0.223,1.246c-0.018-0.389-0.027-0.765-0.023-1.152        C323.59,204.317,323.53,204.293,323.46,204.25z" style="fill:#373737;"/><path d="M282.027,173.024v0.682c0.149,0.201,0.332,0.389,0.536,0.567L282.027,173.024z" style="fill:#373737;"/><path d="M285.131,192.278c-0.641-0.057-0.877,1.065-1.129,1.553c0.368-0.459,0.845-0.674,1.409-0.754        C285.424,192.863,285.343,192.606,285.131,192.278z" style="fill:#373737;"/><path d="M328.638,198.385l0.073,0.811C328.685,198.983,328.676,198.631,328.638,198.385z" style="fill:#373737;"/><path d="M289.278,160.225c0.076,0.154,0.185,0.281,0.284,0.349        C289.533,160.436,289.429,160.322,289.278,160.225z" style="fill:#373737;"/><path d="M312.464,250.79c-0.023,0.08,0.01,0.131,0.002,0.2        C312.631,250.877,312.682,250.797,312.464,250.79z" style="fill:#373737;"/><path d="M324.293,232.473l0.014,0.46c0.207,0.069,0.41,0.141,0.617,0.162L324.293,232.473z" style="fill:#373737;"/><path d="M277.377,98.627c0.054,0.01,0.072,0.013,0.123,0.022        C278.228,98.526,277.815,98.546,277.377,98.627z" style="fill:#373737;"/><path d="M204.347,260.59c-2.725-1.008,4.439-1.286,0.335-2.406        C205.064,258.624,200.949,259.933,204.347,260.59z" style="fill:#373737;"/><path d="M323.682,203.534c0.026-0.382,0.056-0.772,0.106-1.159        C323.698,202.898,323.665,203.254,323.682,203.534z" style="fill:#373737;"/><path d="M204.682,258.184c0-0.005,0-0.01,0-0.01l-0.423-0.105        C204.433,258.116,204.532,258.144,204.682,258.184z" style="fill:#373737;"/><path d="M220.95,125.796c0.238-0.006,0.504-0.143,0.769-0.292        C221.611,125.459,221.414,125.507,220.95,125.796z" style="fill:#373737;"/><path d="M261.463,102.118c0,0-0.295-0.003-0.586,0.021c-0.292,0.022-0.585,0.044-0.585,0.044        C260.764,102.188,261.136,102.146,261.463,102.118z" style="fill:#373737;"/><path d="M213.129,149.301c-0.211,0.601-0.413,0.782-0.434,1.657c0.068-0.068,0.124-0.138,0.184-0.231        C212.792,150.393,212.808,149.969,213.129,149.301z" style="fill:#373737;"/><path d="M211.413,174.187c0.085-0.13,0.149-0.3,0.224-0.45c-0.02-0.241-0.043-0.522-0.064-0.771        L211.413,174.187z" style="fill:#373737;"/><path d="M271.159,293.46c0.317-0.532,0.667-0.863,1.014-1.121        C271.372,292.712,271.096,289.139,271.159,293.46z" style="fill:#373737;"/><path d="M324.09,204.302c-0.269-0.17-0.386-0.391-0.408-0.768c-0.016,0.279-0.021,0.548-0.022,0.811        C323.818,204.432,323.975,204.463,324.09,204.302z" style="fill:#373737;"/><path d="M221.621,152.032c0,0-0.056,0.216-0.139,0.542c-0.072,0.328-0.168,0.766-0.264,1.204        c-0.097,0.438-0.193,0.877-0.266,1.206c-0.061,0.332-0.101,0.553-0.101,0.553        C221.098,154.556,221.377,153.283,221.621,152.032z" style="fill:#373737;"/><path d="M220.454,408.996c0.02,0.127,0.04,0.253,0.041,0.38c-1.579-1.544-3.157-3.089-4.735-4.626        l0.506-0.097c-0.181-0.009-0.354-0.002-0.508,0.026c1.701,1.657,3.402,3.315,4.82,4.696        C220.555,409.233,220.515,409.105,220.454,408.996z" style="fill:#373737;"/><path d="M220.241,166.22c-0.101,0.171-0.191,0.346-0.272,0.522l-0.015,0.033l-0.003,0.008        c0,0.017,0-0.144,0-0.076v0l0,0.001l-0.001,0.002l-0.002,0.004l-0.007,0.017l-0.028,0.067l-0.054,0.134l-0.099,0.271        c-0.124,0.364-0.217,0.736-0.291,1.114c0.089,0.159,0.162,0.341,0.292,0.447c0,0,0.119-0.657,0.237-1.313        c0.03-0.165,0.059-0.329,0.087-0.482c0.014-0.077,0.027-0.151,0.04-0.222l0.004-0.026l0.002-0.013l0-0.001v-0.001        c0,0.035,0-0.079,0,0.078l0.001-0.003l0.001-0.006l0.01-0.051l0.019-0.096C220.209,166.383,220.241,166.22,220.241,166.22z" style="fill:#373737;"/><path d="M272.185,292.331c-0.005,0.008-0.012,0.008-0.012,0.008S272.18,292.339,272.185,292.331z" style="fill:#373737;"/><path d="M269.58,266.872c-0.042,3.682,1.442,1.732,2.288,2.516c0.408,4.396-1.094,2.031-1.853,3.526        c0.384,2.744,1.734,4.853,1.671,6.898c-0.243,0.151-0.333,0.55-0.637,0.082c1.167,2.904,0.035,8.612,1.502,11.996        c-0.132,0.251-0.256,0.377-0.367,0.44c0.741-0.547,1.493-0.629,2.028-0.516c0.021,1.65,0.926,3.064-0.042,3.685        c0.031-1.012-0.358-1.097-0.659-1.571l0.416,1.73c-1.393,1.554-0.475-2.362-1.503-2.364c0.443,3.374,1.582,7.307,1.183,9.89        c-1.359,0.538-0.44-6.044-1.658-2.598l0.529-3.998c-2.15,3.052,0.157-2.429-2.144,0.374        c-0.407,5.262,0.677,5.888,0.267,11.136c0.752,1.184,1.118-0.389,1.87,0.795c1.337,7.462-3.432,5.867-1.637,11.355        c0.902,1.422,2.619,1.975,1.7,5.878l-1.533-1.333c-0.165,5.094,2.2,2.911,1.153,8.245c-0.601-0.949-0.498-4.005-0.683-3.233        c-1.223,3.454,0.864,2.445,0.857,5.103l-1.362,0.549c0.2,5.425,1.167,11.4,1.399,17.408c-0.404-0.333-0.827-1.362-1.247,0.042        c0.66,7.578-0.208,16.174-1.034,23.481l1.167,2.793c-0.016,0.649-0.534,1.204-0.76,0.502        c-0.452,2.848,0.744,0.147,1.202,1.517c0.078,1.621-0.681,2.141-1.03,1.113c0.982,5.026,2.107,14.318,0.835,19.612        l-0.346-1.031c-0.412,3.484,1.582,4.402,1.543,6.93c0.904-0.928,1.809-1.855,2.822-2.896        c-0.442,0.006-0.957-0.055-1.554-0.209l0.728-0.228c-8.959-0.275-18.817,1.056-25.689-0.538        c-1.254,1.724-8.874-0.524-9.388,1.849c-5.138-1.036-3.687-1.495-10.901-2.094c-1.924-0.059-2.826,1.547-5.195,1.854        l-0.09-1.231l-3.191,1.377l-1.754-1.43l-2.22,0.375c0.889,0.049,1.9,0.504,1.775,0.863c-0.704,0.132-1.474,0.183-2.256,0.177        l3.779,3.683c0.088-3.053,1.073-6.245,1.576-6.313l-1.087-8.237c0.497,0.183,0.674,1.562,0.997,2.652        c-1.281-4.397,1.294-0.8,0.12-4.829c-0.276,0.54-0.736-0.291-0.985-0.383c0.734-2.009,0.717-6.581,0.384-9.964l0.854,0.648        c0.183-6.11-0.477-12.881-0.498-19.738c-0.384,2.46-1.859,1.896-2.012-0.114l1.299-0.806        c-0.813-1.297-0.482,2.101-1.481-0.563c0.137-2.562,1.472-1.725,1.904-0.254l-0.469-3.113        c0.389-0.184,0.598,0.547,1.095,0.736c-0.816-1.277,1.279-5.38-0.136-7.221l0.387-0.176        c-0.026-6.855-0.491-9.964-0.586-15.548c-1.125-0.106-0.887-2.291-1.806-3.952c0.337-4.104,1.196-8.661,1.075-13.606        c-0.578-3.473-0.958-1.012-1.634-2.571c1.022-0.26,0.9-5.197,1.649-2.639c-0.198-5.934-0.244-7.579-1.116-15.08        c-0.417,0.815-0.593,1.731-0.945,1.259c-0.176-1.361,0.413-3.101,0.906-2.907l0.107,0.359        c-1.58-8.418,2.883-19.457,0.712-26.155l0.107,0.375l-1.15-6.951c0.161-3.201,0.781,1.916,1.402-0.456        c-0.71-3.043-0.813-5.569-0.763-7.901l0.091-4.261l-4.495-0.125c-3.434-0.095-6.458-0.515-10.13,0.157        c-4.098-2.596-13.647-0.598-20.335-1.197c1.822,1.807,3.644,3.614,5.407,5.363c0.087-1.135,0.248-2.173,0.515-3.096        l-0.708,0.379c-0.714-1.662,0.389-2.022,0.54-3.253c-0.551,0.18-0.623,1.816-1.019,0.783        c-0.988-14.126,0.77-29.182,1.278-43.679c0.141-5.301-3.71-2.973-2.073-9.67l1.339,1.885        c-0.263-1.669-0.447-3.351-0.577-5.042c-1.776,1.771-3.552,3.543-5.341,5.327c9.13-0.507,18.454,0.592,27.3-0.438        c-0.627,0.297-0.65,0.693-1.672,0.677c1.135,0.508,3.275,0.53,5.08,0.325l6.17-0.703l-0.625-4.806        c-0.222-1.706-0.64-3.111-1.019-3.127c0.081-1.631,0.707-0.381,1.1-1.388c0.554-2.222-1.255-5.562-0.307-6.746        c0.155-0.201,0.315,0.622,0.391,1.027c-0.473-1.443,0.083-6.735-1.018-5.345c0.507-3.934-0.533-7.516,0.106-10.653        c-0.156-0.255-0.264-0.551-0.338-0.875c-0.037-0.162-0.064-0.332-0.085-0.506l-0.015-0.132l-0.006-0.067l-0.002-0.017l0-0.008        c0-0.015,0,0.118,0,0.061v-0.002v-0.004l-0.002-0.034l-0.013-0.273c-0.02-0.729,0.037-1.551,0.098-2.27        c0.135-1.373,0.213-2.593-0.625-2.973c0.898,0.188,1.348-1.403,1.601-3.321c0.11-0.963,0.213-2.005,0.21-2.971        c0.036-0.958,0.004-1.835-0.107-2.453c0.382,0.86,0.957-1.875,1.52-0.832c0.481-2.572,0.831-4.961-0.191-4.773        c1.691-2.063,2.051-4.439,2.525-6.599c0.23-1.075,0.523-2.063,0.935-2.886c0.454-0.799,1.073-1.409,1.982-1.688        c2.642-7.239,6.981-13.271,12.461-17.754c0.436,0.822-1.109,1.947-2.438,3.229c-0.698,0.601-1.317,1.263-1.684,1.823        c-0.369,0.557-0.477,1.013-0.086,1.295c1.963-2.563,3.663-4.546,5.516-6.429c0.979-0.867,1.939-1.798,3.135-2.533        c0.59-0.379,1.193-0.782,1.867-1.126c0.682-0.33,1.405-0.652,2.177-0.966c1.646-0.525-0.555,1.139-0.921,1.656        c2.759-1.836,5.852-2.872,8.852-3.762c1.522-0.403,3.009-0.835,4.516-1.172c0.749-0.181,1.483-0.405,2.225-0.603        c0.745-0.182,1.483-0.386,2.217-0.619c0.007,0.168-0.613,0.447-1.199,0.673c1.17-0.234,2.765-0.146,2.533-0.94l-1.124,0.393        c-1.026-0.438,0.047-1.259,1.464-1.985c1.417-0.687,3.155-1.335,3.245-1.659c-0.954,1.281,0.596,1.237,1.99,1.435        c1.401,0.166,2.612,0.417,1.047,1.971c0.78-0.189,1.765-0.621,1.569-1.162c1.191,0.112,1.564,0.46,0.383,1.088        c2.151-0.234,2.856-0.542,3.51-0.815c0.664-0.266,1.234-0.495,3.291-0.41c-0.027,0.396-0.856,0.524-1.294,0.977        c2.093-0.708,4.195-1.417,7.637-0.971c-0.216,0.232,0.175,0.557-0.854,0.518c5.932,0.068,10.17-1.74,16.649-0.785        c-1.974,1.663,2.194,0.637,2.492,2.141l3.512-0.334l-1.382-0.769c3.063,0.123,5.805-0.878,8.423-0.306l-2.296,0.543        l5.75-0.101l-3.231-0.669c3.124-0.671-0.271-1.899,3.793-1.354c-0.834,0.127,3.063,0.116,4.632,1.046c0,0-0.01,0-0.01,0.003        c0.793-0.221,1.598-0.449,2.509-0.555c-0.331-0.345-0.662-0.689-1.022-1.065c0.117,0.833,0.133,1.762-0.057,2.853        c-0.482,0.583-1.646-0.49-1.969-0.11c1.234,1.508,0.279,7.182,1.592,9.088c-0.307-0.634-1.091-0.675-1.252-0.468l1.002,1.265        c-0.337,1.417-0.496,1.623-1.119,1.387c-0.226,4.268,1.907-1.339,1.043,3.722c-0.078-0.399-0.231-0.21-0.378-1.041        c-0.473,5.087,0.552,9.841,0.009,14.515c-1.516,1.365-0.33-4.091-1.612-2.523c0.209,6.747,1.671,13.983,1.256,20.506        l0.177-1.216c1.177,0.515,0.704,1.961,0.221,3.714c0.555-0.539,1.108-1.078,1.689-1.643c-1.389-0.397-2.973-0.801-4.443-0.385        c0.812-0.143,1.081-1.158,0.858-0.926c-4.463-0.423-9.146,0.353-15.931,0.896l0.85-0.53c-2.625-0.535-6.932-0.408-9.771-0.708        c-0.854,0.528-2.48,0.409-1.507,1.22c-1.089-0.408-2.168-0.693-3.237-0.884l-0.8-0.126l-0.398-0.051l-0.199-0.022l-0.1-0.011        l-0.177-0.008c-0.535-0.034-1.019-0.068-1.712-0.015c-2.498,0.138-4.83,1.027-6.828,2.434c-2.01,1.39-3.472,3.354-4.511,5.333        c-1.044,1.995-1.81,4.027-2.672,6.108c0.067-0.519,0.037-1.155-0.022-1.567c-0.025-0.414-0.102-0.599-0.205-0.174        c0,0-0.025,0.121-0.037,0.329c-0.016,0.208-0.038,0.505-0.064,0.862c-0.022,0.355-0.063,0.772-0.076,1.212        c0.009,0.434,0.019,0.897,0.028,1.36c0.007,0.962,0.089,1.736,0.13,2.37c0.045,0.622,0.075,1.036,0.075,1.036        c0.925-0.522,0.562-0.868,1.286-2.258c0.545,0.841,0.964,2.713,0.959,4.356c-0.603-2.984-1.484,0.021-2.004,1.308        c0.284-0.215,0.596,0.228,0.884,0.119c-1.655,3.459,1.857,0.586,0.736,5.312l-0.485-0.252c0.243,1.771,0.88,3.403,0.735,5.312        c-1.071,0.788-0.493-1.885-1.373-2.01c0.054,2.681,2.01,5.295,0.938,7.719c-0.295-1.14-0.295-2.778-0.587-3.917        c-1.264,2.638-0.945,2.946-1.151,4.908l0.029-0.193l-0.19,1.483l-0.278,2.174l2.845,0.41l3.05,0.439l-1.152-0.354        c3.388-2.748,6.837-0.429,11.377-2.202c-4.412,1.677-0.737,0.992-1.088,2.199c1.149,0.35,2.899,0.747,2.396,1.082        c2.146-0.952,3.557,0.812,6.588-0.582c0.13,0.392,2.284,0.065,1.791,1.039c2.78-0.274-0.648-0.686-0.41-1.173        c4.296-1.282,10.042,1.735,16.22-0.022c4.763-0.617,6.06-1.728,9.958-2.38c-0.014-0.016-0.028-0.032-0.048-0.054        c0.051,0.309,0.077,0.786,0.094,1.305c-0.733,1.477-1.204-1.079-1.271-1.426c0.737,0.826,0.975,1.092,1.212,1.358        c-0.058,0.009-0.073,0.011-0.073,0.011c0.026,0.006,0.052,0.012,0.073,0.017c-0.436-0.488-0.872-0.977-1.24-1.389        c-0.821,2.578-0.918,4.583-0.732,7.119c-0.286-0.544-0.626-0.049-1.141,0.674c-0.104,2.028,1.276,1.494,0.433,4.097        c-0.386-0.501-1.019-1.157-1.354-2.175c0.114,2.416,0.6,4.838,0.698,7.336c-0.743,0.584-0.874-1.591-1.227-2.504        c0.021,2.799-0.12,7.232,0.863,8.197l0.563-1.737c-0.051,1.014-0.973,0.426-1.092-0.338c-0.598-2.457,0.72-3.383,1.123-3.477        l0.07,1.779c2.46-1.569,0.354-7.081,0.846-10.597l1.505,1.64l-1.004-3.76c0.509-0.726,1.487-1.158,1.558,0.61        c1.075-2.446-0.36-2.3,0.773-4.381c0.166-0.225,0.235-0.108,0.277,0.12l-0.229-2.405l-0.11-1.157l-0.559,0.354l-0.117,0.074        c0.057-0.04,0.096-0.086,0.117-0.137l0.784,0.877c0.366,0.232,1.038-0.247,0.689,1.073c0.11-0.339,0.2-0.67,0.271-0.975        l0.388-1.663l-2.12-0.279c-3.879-0.511-6.343,1.246-7.876,0.065l0.373-0.098c-6.195,0.49-0.612,1.216-5.271,2.594l-3.089-3.05        l-0.623,1.214c-0.638-0.051-1.899-0.158-1.661-0.644c-2.385,0.808,0.399,0.536-0.988,1.309        c-3.061-1.148-8.48,0.421-9.149-1.534c-1.114,0.916,2.93,0.751-0.358,1.358c-0.911-2.104-3.798,0.313-6.593-0.679        c0.874-1.07,3.527-0.466,0.729-1.464c-1.715,1.806-5.462-0.463-7.834-0.142c-0.1,1.125-3.144,0.833-6.362,0.849        c0.455,0.461,0.925,0.938,1.395,1.416c-0.013-0.932-0.051-1.879-0.157-2.772c0.486,0.252,0.82-7.476,1.356-11.171l0.244,0.11        c-1.467-0.72-1.178-4.533-1.474-7.31c0.88,0.112,1.225,0.612,1.613,2.117l0.001-2.609c-0.462-0.603-0.73-1.464-0.861-3.094        c0,0,0.267,0.151,0.534,0.303c0.272,0.163,0.546,0.325,0.546,0.325c0.011-0.824-0.058-1.542-0.103-2.333        c-0.004-0.76-0.061-1.565,0.054-2.343c0.16-1.56,0.771-3.234,2.203-4.257c-0.291-0.424-1.338-0.378-2.055-0.498        c-0.67-0.115-1.281-0.744,0.359-2.782c0.522,0.289,1.198,0.916,0.536,1.859c0.198-0.305,0.678-1.299,1.485-1.524        c0,0-0.251,0.437-0.434,0.888c-0.158,0.451-0.316,0.902-0.316,0.902c0.785-0.434,0.83-0.715,0.861-1.007        c0.026-0.284-0.029-0.642,0.655-0.981c0.377,0.699,1.21-0.021,1.304,0.652c-0.26,0.222-1.228,0.262-1.461,0.845        c1.312-0.803,3.263-0.916,3.942-0.436c-0.222-0.393-0.275-1.066,0.879-1.352c0.763-0.145,1.155-0.066,1.415-0.015        c0.296,0.085,0.409,0.22,0.467,0.366c0.06,0.147,0.074,0.309,0.201,0.458c0.063,0.074,0.154,0.146,0.294,0.21        c0.034,0.014,0.072,0.03,0.113,0.047l0.031,0.012l0.008,0.002l0.002,0.001c0.088,0-0.118,0-0.097,0l0.001,0l0.004,0.001        l0.017,0.006l0.068,0.024c0.095,0.031,0.204,0.061,0.33,0.089c0.853-0.532,3.058,0.077,3.138-1.103        c1.017,0.024,1.193,0.579,1.581,0.906c1.807-0.488,8.399,0.005,6.396-1.288l-0.46-0.091c0.087-0.023,0.188-0.022,0.296-0.046        c-0.016,0,0,0-0.016,0l0.016,0c5.913-1.065,12.228,0.895,18.083,0.498l-0.018,0.395c1.689-0.187,3.559-0.222,5.319-0.299        l1.814-0.079l-0.084-1.604c-0.1-1.894-0.245-3.662-0.673-4.956c0.011-1.032,0.744-2.43,1.21-1.984        c-0.271-2.67-0.712-2.973-0.025-6.821c0.665,2.689,0.62-0.92,0.479,2.753c0.373-3.463,1.014-4.243-0.03-7.976        c0.999,1.277,1.298-2.597,1.011-4.248l-0.747,2.422c-0.13-1.855-0.025-3.475,0.076-5.119l1.323,0.902        c1.686-7.08-2.636-12.82,0.125-18.196c-0.913-1.885-0.691,3.848-1.765,2.159c0.211-3.262,2.152-6.644,2.166-7.666        c0.23-1.318,0.158-2.223-0.044-2.945l-1.408-5.041L328,101.33c-1.798,0.441-2.661,1.641-5.945,1.181        c0.583,0.493,1.108,1.777-2.401,2.113c-3.259-0.279-3.948-2.118-1.876-2.433c0.784-0.015,1.157,0.147,1.119,0.307        c1.06-0.139,2.45-0.298,1.174-0.854l-0.438,0.461c-1.604-0.536-6.097-0.627-5.018-1.373c-2.48,0.375-1.079,0.745,0.74,1.049        c-4.165-0.82-6.54-0.229-10.834-0.827c0.676,0.283,1.289,0.86,0.607,0.834c-6.303-0.788-2.812,0.812-7.102,0.883        c-2.41-0.8,0.927-1.699-3.403-1.229c-2.618-0.574-0.518-1.277,0.541-1.63c-3.957,0.79-7.32-0.834-9.558-1.073l2.08-0.317        c-1.244,0.188-2.258,0.149-3.289,0.113l1.15,0.987c-1.208-0.204-2.237-0.241-2.202-0.635c-1.271,0.582,0.908,1.609-1.603,2.38        c-1.574-0.564-5.042,0.444-5.608-0.824c5.286,0.46-0.595-1.274,3.935-1.441c-0.891,0.136-1.941,0.129-3.224-0.046        c-0.192-0.142,0.181-0.26,0.531-0.33c-1.283-0.289-2.078-0.345-2.623-0.266c-0.548,0.103-0.845,0.328-1.145,0.587        c-0.602,0.523-1.208,1.167-3.841,1.285c0.629-0.771-1.331-1.229-2.194-0.995c2.159-0.188,1.109,1.085-0.767,1.809        c-1.713-0.141-2.618,0.148-3.305,0.404c-0.688,0.268-1.162,0.566-2.04,0.666l2.033-0.041c-0.568,0.81-2.239,0.911-4.471,1.645        c-0.311-0.5,2.003-0.803,1.138-0.873c-0.578,0.438-1.236,0.651-1.959,0.751c-0.361,0.05-0.739,0.071-1.131,0.078        c-0.391,0.018-0.791,0.036-1.199,0.055c-0.822,0.027-1.686,0.053-2.554,0.184c-0.865,0.135-1.717,0.453-2.523,0.936        c-1.782,0.092-0.594-1.21-2.153-1.025c-1.8,1.24-2.954,1.397-4.135,1.67c-0.588,0.137-1.188,0.274-1.875,0.544        c-0.344,0.135-0.708,0.303-1.103,0.521c-0.388,0.232-0.797,0.532-1.244,0.891c1.599,0.195,1.636-0.098-0.594,2.233        c0,0,0.372-0.259,0.929-0.647c0.566-0.373,1.291-0.94,2.076-1.392c0.78-0.47,1.56-0.94,2.145-1.292        c0.583-0.365,0.993-0.56,0.993-0.56c0,0-0.24,0.178-0.58,0.485c-0.337,0.307-0.786,0.715-1.235,1.125        c-0.44,0.405-0.88,0.811-1.209,1.115c-0.331,0.294-0.531,0.526-0.531,0.526c1.902-0.966,3.816-2.553,5.098-2.853        c-1.72,1.541-1.582,1.229-0.335,1.576c-1.625-0.124-2.836,0.772-4.062,1.637c-0.593,0.48-1.181,0.987-1.833,1.417        c-0.326,0.215-0.668,0.413-1.036,0.583c-0.359,0.185-0.736,0.354-1.154,0.48l-1.184-2.049        c-1.245,0.501-2.343,1.124-3.284,1.938c-0.965,0.782-1.842,1.65-2.671,2.635c-0.42,0.479-0.849,0.968-1.291,1.472        c-0.419,0.524-0.854,1.054-1.322,1.587c-0.475,0.526-0.965,1.071-1.469,1.651c-0.511,0.573-1.085,1.136-1.691,1.73        c0,0,0.432-0.347,0.875-0.678c0.44-0.332,0.88-0.664,0.88-0.664c0.072,1.271-2.649,3.177-3.585,5.187        c-0.518-0.629-1.548,0.306-2.497,0.808c0.274,0.115-0.405,1.155-1.021,2.337c-0.607,1.188-1.061,2.555-0.524,3.185        c0,0-0.596,0.517-1.148,1.071c-0.566,0.554-1.131,1.107-1.131,1.107c-1.357,2.365-1.414,4.033-1.392,5.632        c-0.007,0.796,0.033,1.591-0.041,2.476c-0.086,0.882-0.286,1.853-0.686,3.046c-0.377-1.708-1.627,0.36-1.163-3.12        c-0.575,1.633-1.087,3.104-0.585,3.271c-0.395,0.412-0.419,1.644-0.494,2.916c-0.079,1.274-0.114,2.607-0.653,3.301        c0.208,0.772,0.99,1.149,0.605,2.993c-0.193,0.179-0.385-0.067-0.385-0.067c0.376,0.074,0.125,2.995,1.21,1.49        c-1.585,2.368-1.89,6.008-1.855,9.569c0.049,3.5,0.24,6.813-0.818,9.025c0.284,3.569,0.561,7.868,0.636,11.108        c-0.238-0.207-0.394-0.008-0.315-0.622c-0.71,4.475,2.281,2.737,1.489,7.828c-1.262,2.606-0.705-2.697-1.179-1.074        c-1.262,0.35-1.205,1.811-0.986,3.622c1.101-1.094,2.297-2.281,3.492-3.469c-1.901,0.199-4.194,0.572-5.942-0.228l0.831-0.144        c-2.606-0.914-6.396,0.909-10.669,0.673c0,0,0.21-0.227,0.03-0.392c-2.939,1.291-8.479,1.664-12.596,1.984        c1.292-1.001,1.875-0.516,1.106-1.559c-1.845,0.125,0.521,1.666-3.162,1.911c-0.091-0.043-0.189-0.086-0.337-0.13        l-0.534-0.158l-0.451,1.14c-0.497,1.253-0.968,3.549-1.983,3.884l-0.092-3.471c-1.41,1.791,0.09,4.493-0.141,6.323        l-0.625-0.228c0.251,5.318,1.823,5.377,1.764,11.096l0.466-0.595c1.585,3.109-0.851,2.627,0.335,5.733l-1.57,0.958        c0.4,2.058,1.593,7.207,1.924,10.901c-1.19-2.083-1.829-6.404-2.549-9.075c0.007,2.044,0.18,6.944,0.97,8.002        c-0.16-0.823-0.557-1.856-0.321-2.672c1.264,2.496,1.905,5.79,1.916,9.862c-3.067-0.694-0.673,10.622-3.023,13.598        c0.41,2.46,0.499,4.91,0.448,7.408l-0.078,3.863l4.1,0.126c4.793,0.147,9.75,0.812,15.271,0.699        c-2.974-2.385,2.45-0.064,1.938-2.512c1.956-0.153,2.701-0.112,2.875,0.046l5.922,1.469c1.404,0.713-1.859,0.536-1.68,1.086        c4.28,0.192,1.794,1.038,4.625,1.691c-0.362-0.546,0.308-0.897,1.513-1.003c-1.326-1.32-3.393-3.379-5.459-5.437        c0.067,0.633,0.047,1.499-0.073,2.417c0.26-0.807,0.52-1.614,0.516-2.419c1.673,1.577,3.345,3.155,5.018,4.82l-1.019-0.424        c0.391-0.075,0.753-0.146,1.02-0.197c-2.008-1.999-3.115-3.102-4.221-4.204c0.711,4.881-2.143,4.555-0.908,10.184        l-0.779-1.902c0.47,3.09,0.045,11.41,2.026,14.434c-0.279,0.549-0.944,1.274-1.128-0.086c-0.255,7.394,2.179,16.447,1,22.197        l-0.601-0.558c0.18,1.378,1.136,2.396,0.543,4.125c-0.248-0.088-0.6-0.553-0.631,0.086c0.21,0.729,1.067,3.66,0.729,5.489        l-0.681-1.56c-0.745,7.213,1.698,11.061,2.14,17.107c-1.761-0.011-2.303,5.665-2.573,8.498l-0.25-0.099        c-0.173,8.396,1.535,14.26,2.268,22.034c-1.886,4.831-0.714,16.352-1.744,24.11c0.313-1.187,1.373,0.191,1.557,1.57        c-0.348,1.821,1.249,5.032-0.367,4.744l0.027-0.648c-1.577,1.372-1.136,5.114-1.163,8.034l2.115,0.481        c-1.713,4.319-1.095,10.152-0.727,15.16l0.336,4.564l3.964-0.374c3.847-0.363,7.208-0.568,9.051,0.58        c1.829-0.575,4.113-0.629,5.927-1.204l-0.069,1.136c5.115,0.156,7.669,0.232,13.976-0.202l-1.267,0.843        c3.563-0.021,4.412-3.382,7.696-3.533l1.032,1.664c6.212-0.188,12.54,1.133,18.64-0.56c-0.096,0.25-0.265,0.743-1.27,0.838        c1.343-0.015,3.841,0.163,6.031,0.139l5.209-0.058l0.094-5.385c0.045-2.61-0.203-4.804-1.46-4.229        c1.511-0.073,0.164-6.412-0.493-9.77l1.113,0.522c-1.417-2.833-1.806-2.924-2.19-6.88c0.148-0.938,0.896-0.821,0.606,0.424        c0.593-3.124-1.049-2.435-0.445-6.223l0.708,1.413c0.095-3.216-0.288-2.96-1.113-4.729c-0.442-2.021,0.297-6.099,1.307-6.572        c-0.613-0.434-1.431-2.193-1.135-4.088c0.381-0.256,0.615,0.435,0.73,0.781c0.772-5.374-1.275-7.993-0.171-11.688        c0.369-0.076,0.555-0.316,0.667-0.623c-0.038,4.27-0.108,7.708-0.188,7.386c1.027,0.001,1.217-3.447,2.629-0.703        c-0.768-2.77-2.438-7.505-1.946-10.866c0.1-0.162,0.198-0.322,0.356-0.443l0.114,0.348c0.104-0.776,0.011-1.471-0.16-2.125        c0.172-1.072,0.299-1.755,0.315-2.784c0.853-0.396,0.47-3.954,0.517-5.674c-1.126,0.141-0.939-2.11-1.872-0.002        c0.08-0.273,0.133,0.325,0.177,1.469c0.032,0.259,0.048,0.563,0.114,0.732c-0.031-0.033-0.066-0.073-0.099-0.116        c0.017,1.128,0.039,2.602,0.064,4.274c-0.568-1.359-1.045-2.78-0.416-4.681c-0.72-0.884-1.461-1.855-1.808-2.403        c1.574-2.352,2.434-6.887,3.402-7.517c-0.617-5.252-0.384-12.371-2.487-15.676c-0.268-1.494,0.61-1.716,0.943-2.273        c0.21,0.862,0.175,1.887,0.478,2.354c-0.534-2.985-0.188-8.845-1.661-9.56c0.676-3.762,1.353,2.117,1.125-3.054l0.449,0.698        c2.385-10.165-3.723-16.542-0.666-27.812c-0.188,0.78-0.274,1.171-0.522,1.33c0.802-7.526,0.259-15.323,0.104-23.037        l-2.133,2.125c5.463-0.118,10.884-0.042,16.141,0.842c3.605,0.431,3.996-0.511,6.198-1.226l0.78,1.209l3.764-1.389        c5.337-1.014,9.237,2.975,15.994,1.054l-0.871-0.814c0.941,0.061,2.31,0.004,3.604-0.035l1.604-0.047l0.105-1.496        c0.145-2.046,0.318-3.912,0.863-3.607c-0.122-0.262-0.761-0.877-0.243-1.778l0.636-0.009l-0.476-6.038        c0.921-4.55,2.423,0.973,3.227-5.723c0.011-2.517-1.11-7.285-1.626-6.392c-0.133,1.003-0.652,2.531-1.29,2.542l-0.097-2.313        c-1.811-0.602-3.53-2.548-5.393,2.918l0.737,4.015l-1.026,1.166l0.277-3.288c-1.036,1.776-0.407,3.033-0.027,4.407        c-0.51,0.264-0.9,0.778-1.156,1.534l1.381,4.009c-0.772,0.391-1.264-1.864-1.925,0.666c0.64,1.877,1.8-1.556,2.038,1.468        c-1.031,1.782-1.662,1.167-1.166,3.43c-0.508,0.259-0.765-0.236-0.887-1.125c0.188,1.011,0.116,2.316,0.11,3.505        c1.468-1.325,2.936-2.65,4.339-3.917c-1.17,0.111-2.219,0.275-2.723,0.767c-1.953-1.047-6.615,0.264-6.421-1.499        c-0.616,0.421-3.453,1.379-5.253,1.451c3.291-2.106-6.737-0.132-5.865-2.394c-2.437,1.895-8.792,0.833-13.104,1.88        c0.241-0.15,0.716-0.455,1.097-0.358c-2.427-0.16-3.131-0.733-4.69-1.094c-0.313,1.567-4.092,1.921-6.13,2.885        c-2.973-1.516,1.808-1.837,0.877-3.292c0.097,0.83-2.137,1.114-3.396,1.506l-5.282,1.644l0.827,2.794        c0.207,0.702,0.445,1.114,0.813,0.763c-0.941,2.272-0.459,1.959-1.761,3.128c1.959,0.402,0.325,2.118,1.524,4.008        c-0.975,3.289-1.838,0.843-1.251,4.46C270.267,270.089,269.58,266.872,269.58,266.872z M272.743,352.876        c-0.011,0-0.019,0-0.022,0c-0.025-0.741-0.046-1.372-0.06-1.775C272.679,351.471,272.702,351.982,272.743,352.876z         M272.741,360.103c0.046-0.88,0.057-1.976,0.053-3.134c0.389-0.254,0.787,0.021,0.765,0.748        C273.302,357.321,273.072,359.025,272.741,360.103z M280.573,344.825c0.156,1.144-0.065,1.526-0.296,1.684        c-0.019-0.54-0.055-1.172-0.13-2.001c-0.042-0.033-0.09-0.102-0.138-0.135C280.225,344.482,280.426,344.607,280.573,344.825z" style="fill:#373737;"/><path d="M279.104,342.768c-0.024-0.165-0.072-0.257-0.081-0.472c-0.1,0.232-0.185,0.456-0.255,0.682        c0.121,0.14,0.244,0.281,0.352,0.406C279.115,343.176,279.109,342.96,279.104,342.768z" style="fill:#373737;"/><path d="M304.127,158.592l0.152,0.028c-0.126-0.047-0.242-0.093-0.316-0.166        C304.063,158.511,304.063,158.546,304.127,158.592z" style="fill:#373737;"/><polygon points="223.413,404.048 223.43,404.331 224.055,404.066       " style="fill:#373737;"/><path d="M276.9,176.848c-0.099,0.076-0.201,0.225-0.289,0.521        C276.686,177.347,276.789,177.121,276.9,176.848z" style="fill:#373737;"/><path d="M276.597,194.039l-0.216,1.29l-0.344,2.05l2.964,0.586l1.139,0.225        c-0.492-0.112-0.922-0.198-1.138-0.263l-2.771-0.83l0.212-1.768C276.514,194.733,276.558,194.365,276.597,194.039z" style="fill:#373737;"/><path d="M290.924,198.474c0.17-0.195,0.22-0.343,0.265-0.479c-0.011-0.004-0.019-0.004-0.025-0.009        L290.924,198.474z" style="fill:#373737;"/><path d="M263.592,109.406c-0.165,0.03-0.326,0.069-0.468,0.121        C262.046,109.906,262.788,109.71,263.592,109.406z" style="fill:#373737;"/><path d="M325.321,107.261c-0.671,0.183-1.331,0.362-2.026,0.467        C324.404,107.849,325.268,107.899,325.321,107.261z" style="fill:#373737;"/><path d="M221.72,151.652c-0.005-0.008-0.009-0.002-0.018-0.011c-0.028,0.135-0.053,0.254-0.082,0.39        L221.72,151.652z" style="fill:#373737;"/><path d="M320.388,107.616c1.105,0.259,2.037,0.241,2.907,0.112        C322.385,107.624,321.313,107.475,320.388,107.616z" style="fill:#373737;"/><path d="M322.16,215.966l-0.11,0.629c0.074-0.003,0.131,0.041,0.172,0.094L322.16,215.966z" style="fill:#373737;"/><path d="M322.222,216.688l0.06,0.717C322.314,217.083,322.334,216.802,322.222,216.688z" style="fill:#373737;"/><path d="M322.412,218.916l-0.131-1.51C322.227,217.917,322.127,218.547,322.412,218.916z" style="fill:#373737;"/><path d="M324.454,198.609l-0.386-0.241C324.142,198.485,324.265,198.569,324.454,198.609z" style="fill:#373737;"/><path d="M325.396,198.988c0.637,0.054,1.434,0.283,2.294,0.467c-1.144-1.282-2.287-2.564-3.484-3.906        c-0.259,0.833-0.48,1.732-0.442,2.622l0.306,0.197c-0.293-0.502,0.182-1.647,0.549-2.776l3.077,3.449        C326.801,198.837,325.924,198.695,325.396,198.988z" style="fill:#373737;"/><path d="M303.262,193.688l4.451,0.378c-0.773-0.444-1.791-1.04,0.236-1.12        C302.348,191.584,309.097,193.931,303.262,193.688z" style="fill:#373737;"/><path d="M289.453,192.895c2.396-0.174-0.021-0.631,0.108-0.876        C288.038,192.398,287.67,192.494,289.453,192.895z" style="fill:#373737;"/><path d="M330.022,149.424l1.021,0.25C330.914,147.827,330.646,149.653,330.022,149.424z" style="fill:#373737;"/><polygon points="324.913,130.289 324.261,132.078 325.19,132.941       " style="fill:#373737;"/><polygon points="332.307,119.081 332.445,119.889 332.104,116.807       " style="fill:#373737;"/><path d="M210.396,169.866l1.258-0.565C211.42,168.055,210.003,167.801,210.396,169.866z" style="fill:#373737;"/><path d="M181.257,211.19c-0.622,0.794-1.009,2.834-0.378,4.083        C180.951,213.646,181.427,212.018,181.257,211.19z" style="fill:#373737;"/><polygon points="210.843,397.847 210.413,396.392 210.779,399.135       " style="fill:#373737;"/></g></g></g><g><g><g><path d="M431.135,31.842c-0.919,0.309-0.46,1.087,2.12,1.111c0,0,0.485-0.3,0.97-0.6        c0.492-0.28,0.984-0.56,0.984-0.56s-1.021-0.035-2.041,0.003C432.151,31.819,431.135,31.842,431.135,31.842z" style="fill:#373737;"/><path d="M447.65,37.197c1.517,0.1,3.155,0.281,4.289,0.129c1.116-0.116,1.704-0.49,1.003-1.444        c-1.665,0.059-2.604-0.083-3.587-0.195c-0.991-0.068-2.011-0.174-3.755,0.144c-2.486-0.527-4.235-1.425-3.717-1.826        c-0.941,0.116-3.903-1.028-5.387-0.349c3.179,1.43,7.155,2.234,11.595,2.756C448.902,36.968,447.923,37.026,447.65,37.197z" style="fill:#373737;"/><path d="M482.43,263.121l0.207-1.573C482.536,261.977,482.472,262.516,482.43,263.121z" style="fill:#373737;"/><path d="M476.961,414.866c0.004-1.157-0.111-1.643-0.229-1.706        C476.785,414.236,476.838,415.119,476.961,414.866z" style="fill:#373737;"/><path d="M470.985,438.622c0.233-0.464,0.431-0.854,0.644-1.276        C471.301,437.801,471.024,438.276,470.985,438.622z" style="fill:#373737;"/><path d="M482.43,263.121l-0.542,4.041C482.311,267.461,482.272,265.095,482.43,263.121z" style="fill:#373737;"/><path d="M478.196,53.219c-0.626-0.646-1.243-1.092-1.826-1.475c0.545,0.493,1.08,0.965,1.578,1.507        C478.028,53.232,478.097,53.217,478.196,53.219z" style="fill:#373737;"/><path d="M483.448,196.185l0.036-1.234c-0.139-0.367-0.311-0.712-0.506-1.04L483.448,196.185z" style="fill:#373737;"/><path d="M484.85,144.833c-0.085,1.159,1.025,1.598,1.503,2.058c-0.442-0.67-0.636-1.535-0.691-2.556        C485.448,144.311,485.188,144.454,484.85,144.833z" style="fill:#373737;"/><path d="M481.366,65.372c0,0-0.21-0.287-0.419-0.574c-0.204-0.29-0.428-0.567-0.428-0.567        C480.763,64.513,481.095,65.036,481.366,65.372z" style="fill:#373737;"/><path d="M482.057,232.926c-0.17,0.082-0.321,0.261-0.417,0.455        C481.781,233.386,481.921,233.207,482.057,232.926z" style="fill:#373737;"/><path d="M371.734,26.847c-0.044,0.079,0.014,0.132-0.003,0.201        C372.034,26.946,372.129,26.87,371.734,26.847z" style="fill:#373737;"/><path d="M431.012,34.792l-0.828,0.027c-0.095,0.209-0.195,0.414-0.203,0.622L431.012,34.792z" style="fill:#373737;"/><path d="M439.764,467.968c0.081-0.024,0.109-0.033,0.186-0.056        C440.942,467.349,440.36,467.621,439.764,467.968z" style="fill:#373737;"/><path d="M37.988,440.009c-0.144,2.349-0.756,0.573-1.321-0.975c-0.302-0.774-0.528-1.459-0.737-1.526        c-0.197-0.063-0.414,0.486-0.404,2.306c0.185-0.364,0.805,1.187,1.476,2.026C37.664,442.688,38.14,442.873,37.988,440.009z" style="fill:#373737;"/><path d="M479.006,54.377c0.5,0.534,0.948,1.132,1.407,1.72        C479.815,55.279,479.395,54.739,479.006,54.377z" style="fill:#373737;"/><path d="M35.526,439.813c-0.005,0.001-0.01,0.002-0.01,0.002l0.005,0.748        C35.523,440.254,35.524,440.078,35.526,439.813z" style="fill:#373737;"/><path d="M333.192,476.604c0.233,0.189,0.675,0.322,1.135,0.447        C334.285,476.938,334.027,476.807,333.192,476.604z" style="fill:#373737;"/><path d="M414.633,474.947l-2.019-0.07C413.416,474.947,414.064,474.957,414.633,474.947z" style="fill:#373737;"/><path d="M291.007,479.879c-1.1-0.042-1.478-0.182-2.966,0.029c0.14,0.051,0.279,0.085,0.459,0.118        C289.035,479.851,289.752,479.751,291.007,479.879z" style="fill:#373737;"/><path d="M247.029,481.646c0.237,0.076,0.547,0.128,0.821,0.193c0.435-0.036,0.943-0.078,1.391-0.116        L247.029,481.646z" style="fill:#373737;"/><path d="M238.063,22.042c0.95,0.354,1.537,0.727,1.991,1.091        C239.408,22.307,245.88,22.28,238.063,22.042z" style="fill:#373737;"/><path d="M477.738,53.655c0.39,0.015,0.755,0.223,1.268,0.722c-0.365-0.389-0.716-0.763-1.058-1.127        C477.734,53.259,477.599,53.343,477.738,53.655z" style="fill:#373737;"/><path d="M289.573,488.813l-6.995,0.114C284.536,488.958,287.078,488.914,289.573,488.813z" style="fill:#373737;"/><path d="M19.718,144.677l-0.181-1.602C19.53,143.696,19.578,144.264,19.718,144.677z" style="fill:#373737;"/><path d="M261.85,489.923c-1.263-0.347-2.593-0.523-3.965-0.619c-0.285,0.099-0.613,0.185-0.8,0.322        L261.85,489.923z" style="fill:#373737;"/><path d="M240.068,23.146c-0.014-0.005-0.013-0.012-0.013-0.012S240.054,23.14,240.068,23.146z" style="fill:#373737;"/><path d="M286.198,22.317c-6.657-0.298-3.186,1.32-4.632,2.112c-7.963,0.101-3.634-1.235-6.309-2.098        c-4.978,0.192-8.838,1.395-12.535,1.189c-0.266-0.254-0.982-0.372-0.126-0.642c-5.293,0.964-15.574-0.565-21.746,0.665        c-0.449-0.149-0.673-0.282-0.783-0.398c0.961,0.779,1.082,1.537,0.859,2.063c-2.986-0.094-5.577,0.711-6.661-0.299        c1.828,0.102,1.995-0.282,2.865-0.549l-3.144,0.295c-2.76-1.5,4.288-0.31,4.329-1.337c-6.116,0.208-13.27,1.072-17.926,0.493        c-0.922-1.396,10.945-0.02,4.757-1.476l7.21,0.808c-5.44-2.362,4.387,0.326-0.598-2.168c-9.499-0.774-10.67,0.266-20.146-0.51        c-2.167,0.669,0.662,1.145-1.505,1.813c-13.544,0.816-10.483-3.838-20.474-2.427c-2.604,0.802-3.667,2.479-10.693,1.289        l2.469-1.438c-9.206-0.52-5.348,1.996-14.954,0.578c1.739-0.535,7.26-0.219,5.874-0.457c-6.201-1.462-4.455,0.693-9.26,0.501        l-0.941-1.399c-9.816-0.178-20.659,0.371-31.531,0.185c0.617-0.38,2.495-0.731-0.028-1.249        c-13.728,0.131-29.239-1.335-42.421-2.67l-5.096,0.971c-1.173-0.061-2.157-0.617-0.877-0.793        c-0.321-0.038-0.603-0.07-0.85-0.099c-0.296-0.018-0.551-0.034-0.769-0.047c-0.364-0.015-0.606-0.007-0.759,0.019        c-0.306,0.051-0.258,0.173-0.126,0.325c0.263,0.304,0.858,0.726-0.384,0.938c-1.419-0.007-2.557-0.104-2.958-0.319        c-0.415-0.208-0.172-0.496,0.875-0.706c-2.609,0.303-5.503,0.776-8.67,1.509c-3.15,0.755-6.494,1.763-9.753,3.007        c-6.539,2.482-12.602,6.012-17.025,8.692c0,0,0.346-0.376,0.691-0.752c0.34-0.386,0.714-0.731,0.714-0.731        c-1.697,1.094-2.902,2.132-3.789,3.163c-0.449,0.509-0.842,0.993-1.192,1.472c-0.327,0.498-0.638,0.97-0.945,1.438        c-1.214,1.881-2.297,3.646-5.024,6.128c0,0,0.174-0.31,0.349-0.619c0.188-0.3,0.376-0.6,0.376-0.6        C27.17,44.59,23.09,52.959,20.948,61.198c-1.095,4.124-1.75,8.218-2.142,12.093c-0.077,0.97-0.191,1.926-0.252,2.867        c-0.059,0.943-0.116,1.869-0.172,2.775c-0.1,1.72-0.224,3.347-0.403,4.9c1.759,2.3-0.291,16.044,2.096,17.018        c-0.902,9.277-1.399,6.642-1.809,19.683c-0.008,3.48,1.622,5.141,1.992,9.432l-1.23,0.141l1.462,5.797l-1.385,3.148        l0.433,4.023c0.026-1.607,0.455-3.429,0.817-3.196c0.739,6.282-0.416,15.378-1.043,15.552l1.472,14.869        c-0.505-0.316-0.748-2.807-1.121-4.77c1.487,7.917-1.256,1.482,0.106,8.738c0.251-0.985,0.75,0.506,1.003,0.665        c-0.64,3.654-0.408,11.925,0.083,18.035l-0.884-1.15c0.103,11.057,1.08,23.287,1.422,35.69c0.268-4.461,1.77-3.48,2.016,0.153        l-1.261,1.492c0.874,2.326,0.384-3.812,1.508,0.98c-0.017,4.637-1.391,3.157-1.892,0.509l0.614,5.62        c-0.38,0.342-0.623-0.974-1.129-1.303c0.876,2.289-1.026,9.762,0.475,13.057l-0.378,0.328        c0.347,12.399,0.957,18.01,1.314,28.109c1.13,0.165,0.994,4.122,1.99,7.104c-0.144,7.433-0.79,15.696-0.437,24.639        c0.74,6.269,1.004,1.808,1.754,4.614c-1.01,0.492-0.657,9.421-1.525,4.809c0.476,10.729,0.599,13.705,1.822,27.255        c0.378-1.484,0.512-3.146,0.886-2.298c0.24,2.458-0.268,5.617-0.77,5.278l-0.124-0.648        c1.974,15.194-1.972,35.256,0.513,47.327l-0.125-0.676l1.476,12.551c-0.01,5.794-0.87-3.451-1.38,0.852        c1.05,6.763,1.143,12.125,1.155,17.191c0.006,2.532-0.007,4.991,0.069,7.513l0.015,0.474l0.031,0.592l0.067,0.955        c0.05,0.644,0.098,1.274,0.174,1.949c0.218,1.422,0.401,2.946,0.792,4.373c-0.451,2.392-0.179,5.672,0.682,9.345        c0.871,3.672,2.424,7.702,4.459,11.587c2.027,3.895,4.526,7.633,7.063,10.955c2.536,3.329,5.088,6.26,7.138,8.786        l-0.051-1.031c2.881,1.702,2.695,2.951,4.538,4.601c0.055-0.657-2.417-2.713-0.57-1.752        c5.511,4.199,11.761,7.599,18.485,9.955c6.691,2.387,14.046,3.479,21.186,3.381c13.287-0.083,26.663,0.018,39.778-0.186        c9.591-0.193,5.291-3.897,17.441-2.684l-3.377,1.458c19.278-2.356,39.551-1.527,58.43-3.628        c-1.116,0.35-1.132,0.746-2.98,0.815c4.037,0.8,14.79-0.545,14.827-1.331c2.952-0.028,0.711,0.682,2.543,1.007        c4.035,0.405,10.021-1.627,12.191-0.759c0.368,0.143-1.116,0.356-1.846,0.46c2.595-0.568,12.183-0.369,9.635-1.375        c7.128,0.243,13.576-1.037,19.27-0.607c3.646-1.386,12.188,0.109,13.292-1.688c-0.437,1.829,12.518,0.961,16.977-0.07        c-1.481,0.607,3.93,0.41,2.199,1.237c5.125-0.229,9.812-0.754,8.881-1.646c9.532,1.785,18.918-2.501,24.348,0.059        c15.194-1.581,29.263-2.802,42.947-3.774c-0.423,1.823-15.139,0.786-14.476,2.655c12.97-1.263,20.405-3.11,33.312-3.19        c3.349,0.112-1.862,0.857-2.978,1.211c12.956-1.262,25.115-0.841,36.632-2.284c-0.025,0.169-1.266,0.402-2.438,0.587        c1.139-0.075,2.465-0.062,3.471-0.131c0.252-0.018,0.483-0.04,0.687-0.07c0.051-0.008,0.1-0.016,0.147-0.023l0.069-0.014        l0.033-0.007l0.009-0.002l0.119-0.007l0.004-0.001l0.017-0.004c0.086-0.021,0.164-0.046,0.233-0.071        c0.276-0.105,0.407-0.248,0.329-0.448c0,0-0.138,0.023-0.344,0.058c-0.052,0.009-0.107,0.019-0.167,0.028l-0.091,0.016        l-0.15,0.013l-0.049,0.007c-0.129,0.018-0.268,0.037-0.405,0.057c-0.553,0.077-1.105,0.155-1.105,0.155        c-0.921-0.261-0.822-0.569-0.15-0.896c0.335-0.163,0.814-0.33,1.381-0.498l0.217-0.063l0.056-0.017l0.027-0.008l0.007-0.002        l0.004-0.001c0.032-0.002-0.067,0.003,0.073-0.005l0.014-0.004l0.112-0.034c0.15-0.045,0.306-0.092,0.465-0.139        c0.317-0.089,0.65-0.182,0.99-0.277c1.335-0.332,2.938-0.825,4.116-1.185c1.176-0.417,2.009-0.768,2.084-0.937        c-1.755,1.478,1.167,1.196,3.832,0.787c2.624-0.445,5.078-0.832,2.326,1.469c1.531-0.536,3.301-1.586,2.783-1.976        c1.148-0.27,1.909-0.446,2.143-0.341c0.229,0.095-0.062,0.486-1.108,1.168c2.028-0.838,3.327-1.479,4.235-2.045        c0.913-0.556,1.479-0.937,1.998-1.354c1.043-0.816,2.048-1.45,5.409-3.394c0.089,0.178-0.184,0.503-0.539,0.887        c-0.364,0.369-0.817,0.787-1.064,1.188c0.793-0.634,1.559-1.298,2.346-1.992c0.791-0.676,1.612-1.378,2.498-2.135        c1.776-1.479,3.805-3.114,6.386-5.122c-0.146,0.435,0.65,0.188-0.857,1.448c4.317-3.676,7.25-7.59,9.906-11.7        c1.29-2.091,2.582-4.197,3.821-6.505c1.268-2.29,2.571-4.727,3.919-7.468c0.082,2.003,0.617,1.112,1.351-0.32        c0.698-1.439,1.521-3.419,2.309-3.512c0,0,0.103-0.412,0.256-1.031s0.367-1.439,0.516-2.277        c0.159-0.834,0.337-1.66,0.437-2.288c0.092-0.629,0.153-1.048,0.153-1.048s-0.32,0.62-0.64,1.24        c-0.347,0.604-0.694,1.209-0.694,1.209c1.576-5.645,0.88-11.041,1.473-15.755c0,0,0.121,1.034,0.243,2.069        c0.115,1.053,0.193,2.164,0.193,2.164s0.021-0.686,0.055-1.713c0.005-0.977,0.01-2.279,0.016-3.581        c0.011-2.6,0.021-5.199,0.021-5.199l-0.75,5.862c-0.594-5.634-1.907,0.542-1.261-6.825c0.106,1.505,0.192-5.545,1.162-8.407        c0,0-0.001,0.019,0.003,0.019c-0.39-2.758-0.802-5.594-0.303-9.683c0.51-1.05,1.623,0.909,1.963,0.227        c-1.162-2.746,0.06-12.996-1.163-16.465c0.277,1.152,1.059,1.236,1.229,0.865l-0.942-2.302        c0.404-2.559,0.573-2.93,1.186-2.493c0.427-7.718-1.971,2.395-0.868-6.749c0.06,0.724,0.222,0.384,0.329,1.889        c0.713-9.197-0.087-17.813,0.676-26.26c1.58-2.448,0.137,7.405,1.493,4.588c0.109-12.21-1.012-25.32-0.288-37.116        l-0.234,2.197c-2.069-1.704,1.322-8.761,0.509-14.764c0.111,1.468,1.117,1.954,0.894,1.552        c0.594-8.075-0.005-16.547-0.289-28.818l0.498,1.535c0.635-4.751,0.672-12.541,1.081-17.68        c-0.496-1.544-0.315-4.486-1.164-2.722c3.598-15.773-0.717-30.325,2.308-44.326c-0.047,1.684,0.351,4.028,0.396,2.689        l-0.128-12.01c-0.953,0.92-0.608,1.556-1.406,4.051c-0.5-1.535-0.819-4.934-0.726-7.906c0.443,5.413,1.484,0,2.072-2.313        c-0.295,0.381-0.582-0.427-0.876-0.239c1.839-6.214-1.826-1.108-0.452-9.628l0.472,0.469        c-0.148-3.209-0.697-6.179-0.451-9.628c1.114-1.397,0.393,3.424,1.266,3.671c0.09-4.85-1.726-9.631-0.523-13.988        c0.233,2.069,0.146,5.032,0.377,7.101c1.403-4.74,1.103-5.305,1.413-8.849l-0.04,0.348l0.825-8.192l-0.405,2.081        c-2.597-6.156-0.123-12.373-1.693-20.604c1.479,7.999,0.959,1.343,2.151,1.991c0.4-2.076,0.877-5.239,1.189-4.324        c-0.856-3.893,0.971-6.425-0.287-11.923c0.397-0.231,0.167-4.131,1.119-3.229c-0.15-5.032-0.716,1.167-1.191,0.729        c-0.546-3.892,0-8.43,0.498-13.393c0.248-2.482,0.484-5.07,0.566-7.738l0.014-0.501l0.006-0.584l-0.019-1.011        c-0.028-0.69-0.029-1.325-0.114-2.072c-0.161-1.489-0.382-2.981-0.791-4.392c-0.949-4.969-2.292-7.696-3.585-10.237        c-1.329-2.532-2.748-4.882-5.081-8.673c-0.448-1.463,0.17-1.115,0.882-0.351c0.7,0.766,1.513,1.93,1.513,1.93        c-1.668-4.713-3.855-7.916-7.091-11.302c0.844,0.54,0.499-0.422-0.102-1.813c-1.287-1.413-1.966-1.656-2.712-2.027        c-0.742-0.379-1.475-0.94-3.087-2.842c0.901,0.279,2.22,0.498,3.803,1.565c-3.408-3.048-7.267-5.395-11.257-7.678        c-0.64-1.256,2.897,0.714,4.45,1.441c-2.162-1.526-5.062-3.352-7.744-4.587c-2.661-1.279-5.058-2.009-6.003-1.849        c0,0,0.704,0.438,1.408,0.875c0.698,0.446,1.373,0.926,1.373,0.926c-1.671-0.822-0.441-1.277,0.895-0.794        c4.358,1.401,5.319,3.652,5.303,4.073c0,0-0.717-0.392-1.433-0.785c-0.708-0.404-1.446-0.75-1.446-0.75        c0.842,1.833,3.56,3.448,6.6,5.456c3.047,1.969,6.419,4.383,8.515,6.928c0,0-0.757-0.237-1.513-0.475        c-0.767-0.204-1.532-0.407-1.532-0.407s0.347,0.238,0.865,0.595c0.516,0.363,1.173,0.882,1.851,1.393        c0.688,0.503,1.316,1.066,1.811,1.474c0.491,0.415,0.818,0.691,0.818,0.691c0.263,0.696,0.316,1.392,0.073,1.588        c-0.261,0.211-0.772-0.104-1.856-1.249c0.558,1.01,0.955,1.729,1.339,2.255c0.374,0.532,0.73,0.872,1.027,1.231        c0.591,0.715,1.233,1.335,1.783,3.272c0.09,0.443-0.077,0.313-0.33,0.003c0,0,0.164,0.224,0.409,0.56        c0.248,0.334,0.581,0.782,0.877,1.251c0.307,0.465,0.612,0.931,0.843,1.28c0.233,0.349,0.378,0.587,0.378,0.587        c-0.695-0.626-0.727,1.153-1.727-1.346c1.367,3.692,2.736,6.49,3.756,8.859c0.483,1.185,0.913,2.241,1.153,3.206        c0.217,0.969,0.322,1.829,0.141,2.61c0,0-0.053-0.156-0.105-0.313c-0.06-0.155-0.12-0.31-0.12-0.31        c0.313,1.324,0.553,2.333,0.734,3.1c0.155,0.775,0.289,1.306,0.409,1.666c0.239,0.72,0.424,0.754,0.627,0.698        c0.385-0.096,0.97-0.635,1.816,3.635c0,0-0.19,0.353-0.476,0.881c-0.291,0.532-0.652,1.232-1.06,1.923        c-0.798,1.389-1.595,2.778-1.595,2.778l1.187,1.139c-0.08,1.154-0.243,3.436-0.718,2.999c0.701,4.324,0.554-0.717,1.265,1.803        c-1.285,5.524,0.041,15.345-1.943,16.537c0.866,2.024,0.883-5.294,1.343,0.662c-2.146,1.627,0.144,6.873-0.975,11.921        c-1.031-1.593-0.309-6.387-1.432-1.335c1.729,3.121-0.708,9.876-0.493,14.171c1.446,0.247,0.314,9.335,0.574,16.538        c-0.474-0.47-1.221,13.501-1.954,20.172l-0.238-0.205c1.428,1.339,0.935,8.229,1.082,13.261        c-0.874-0.225-1.191-1.139-1.5-3.872l-0.141,4.72c0.436,1.129,0.638,2.609,0.71,5.678l-1.06-1.222        c-0.136,6.286,0.896,12.695-0.089,20.759c1.01,0.486,3.051-6.342,3.468,2.229c-0.563,0.299-1.52,0.586-1.677-1.66        c0.051,0.736,0.378,2.629,0.096,4.099l-0.824-3.446c-0.524,3.67,0.718,1.951,0.539,4.893c-0.788-0.084-0.632,2.161-1.245,1.72        c-0.053-0.754,0.407-2.559,0.133-3.696c-0.246,3.316-0.84,7.315-1.479,8.622c0.458-0.275,1.063,0.033,1.09,2.467        c-0.139,6.286-1.018,2.122-1.537,5.774c0.5,1.54-0.193,5.531,0.983,5.673c-0.063,1.839-0.624,2.161-0.967,2.862        c0.42,3.268-0.325,15.196,1.045,11.57l0.108-0.832c0.011,0.156,0.022,0.34,0.035,0.533c0.001-0.027,0,0,0.001-0.027        l-0.001,0.027c0.841,10.696-1.36,22.125-1.187,32.718l-0.394-0.031c0.254,6.33-0.173,14.063,0.536,18.598        c-0.06,1.867-0.859,4.386-1.304,3.573c0.146,4.834,0.572,5.389-0.297,12.341c-0.538-4.874-0.664,1.655-0.35-4.988        c-0.536,6.26-1.213,7.662-0.346,14.429c-0.939-2.324-1.42,4.681-1.211,7.671l0.861-4.371c0.042,3.357-0.139,6.286-0.318,9.26        l-1.279-1.651c-2.02,12.783,2.03,23.23-0.984,32.916c0.824,3.424,0.873-6.951,1.866-3.881        c-0.363,5.897-2.465,11.988-2.526,13.837c-0.99,8.063,1.707,7.606,0.939,16.053c0.507-1.067,1.806-2.051,2.056,4.288        c-0.36,5.902-2.218,7.199-2.481,3.458c0.004-1.418,0.176-2.097,0.335-2.032c-0.113-1.914-0.238-4.425-0.825-2.102l0.45,0.781        c-0.288,1.458-0.482,4.219-0.695,6.374c-0.097,1.108-0.242,1.921-0.382,2.425c-0.142,0.494-0.292,0.62-0.461,0.169        c0.116,2.066,0.176,2.53,0.421,2.091c0.243-0.438,0.474-1.791,0.681-3.337c-0.476,3.536-0.915,6.253-1.464,8.99        c-0.569,2.725-1.266,5.489-2.827,8.794c0.646-0.983,1.547-1.811,1.135-0.716c-1.094,2.481-1.836,3.952-2.253,4.94        c-0.398,0.995-0.53,1.478-0.564,1.891c-0.091,0.814,0.204,1.345-1.695,4.585c-1.483,1.576-1.621,1.006-1.859,0.883        c-0.246-0.129-0.503,0.202-2.528,3.317c-3.238,3.189-1.544-0.07-0.777-1.661c-1.639,2.897-3.903,5.086-6.066,6.748        c-1.063,0.858-2.169,1.523-3.128,2.181c-1.01,0.596-1.882,1.184-2.661,1.688c0,0,0.158-0.146,0.395-0.362        c0.229-0.228,0.531-0.532,0.835-0.836c0.303-0.303,0.604-0.605,0.831-0.833c0.23-0.222,0.369-0.387,0.369-0.387        c-0.705,0.74-1.407,1.348-2.076,1.928c-0.699,0.542-1.382,1.037-2.068,1.538l2.141-0.388        c-1.721,1.094-3.177,2.002-3.355,1.656c-0.695,0.837-0.156,0.952,0.194,1.228c0.344,0.272,0.523,0.739-1.102,2.199        c-0.652,0.271-1.438,0.665-2.266,1.114c-0.816,0.472-1.707,0.938-2.554,1.364c-0.839,0.445-1.673,0.766-2.361,0.968        c-0.689,0.201-1.248,0.248-1.589,0.03c4.097-1.46,3.697-1.764,3.177-1.913c-0.538-0.19-1.211-0.35,1.938-2.049        c-1.152,0.773-2.678,1.523-4.61,2.145c-0.332-0.011,0.162-0.354,0.636-0.636c-3.905,1.046-4.662,1.548-5.436,2.331        c-0.383,0.39-0.771,0.809-1.59,1.242c-0.408,0.221-0.919,0.464-1.59,0.701c-0.678,0.211-1.511,0.438-2.553,0.655        c0.924-0.896-2.194-0.959-3.434-0.671c1.587-0.187,2.082-0.024,1.725,0.42c-0.169,0.207-0.552,0.489-1.062,0.742        c-0.507,0.246-1.163,0.5-1.915,0.729c-0.719,0.004-1.354,0.007-1.925,0.011c-0.29,0.01-0.563,0.02-0.822,0.028        c-0.222,0.014-0.432,0.025-0.629,0.037c-0.92,0.049-1.626,0.144-2.244,0.251c-1.236,0.213-2.122,0.474-3.657,0.503l3.514,0.12        c-1.159,0.756-4.093,0.78-8.169,1.167c-0.371-0.538,3.694-0.527,2.226-0.713c-4.484,1.428-10.3-0.882-16.589,0.212        c-2.949-0.364-0.338-1.322-2.923-1.545c-7.053,1.204-7.715-0.665-15.136,0.394c2.184,0.867,2.551,0.619-2.658,1.759        l12.221-1.161l-7.804,1.701c3.696-0.135,7.775-0.912,9.997-0.838c-3.715,0.928-3.34,0.675-1.538,1.396        c-5.114-1.229-9.994,1.234-15.88,0.502l0.085-2.368c-8.833-0.7-15.569,1.837-27.006,1.7l3.685,0.263        c-1.494,1-7.043,0.413-10.724,0.941c0.313-0.804-2.01-0.997-3.606-1.426c0.216,0.578-8.357,0.28-9.33,1.898l-5.136-0.836        c-9.234-0.057-10.43,2.669-19.299,2.755c2.634-0.964-1.414-1.362,4.495-2.214c-2.958,0.111-5.623,0.073-5.647,0.622        c-1.748-0.426-8.161,1.391-10.91,0.75c-1.233,0.396-1.608,1.239-4.931,1.307c-0.368-0.146-0.002-0.391-0.002-0.391        c0.002,0.391-5.179,0.738-2.241,1.496c-9.209-2.098-25.459,1.197-33.477-0.6c-6.446,0.523-14.212,1.088-20.07,1.38        c0.367-0.251,0.003-0.395,1.116-0.356c-8.113-0.41-4.88,2.464-14.111,2.013c-4.751-1.087,4.855-0.885,1.906-1.251        c-1.378-2.546-11.087,0.798-17.338-0.47l1.493-0.213c-4.767-0.692-11.506,1.445-19.245,1.569c0,0,0.367-0.244,0.03-0.395        c-5.234,1.536-15.227,2.374-22.649,3.04c2.275-1.108,3.358-0.673,1.904-1.648c-3.328,0.279,1.043,1.618-5.599,2.173        c-2.187-0.469-7.007-0.763-7.688-1.839l6.275-0.311c-3.271-1.298-8.124,0.373-11.439,0.258l0.397-0.64        c-9.612,0.587-9.682,2.162-20.027,2.464l1.087,0.429c-5.587,1.781-4.771-0.686-10.361,0.696l-1.769-1.51        c-3.712,0.53-12.998,2.048-19.671,2.612c3.741-1.321,11.54-2.232,16.354-3.121c-3.696,0.136-12.555,0.618-14.449,1.474        c1.484-0.211,3.344-0.673,4.826-0.488c-2.243,0.709-4.849,1.28-7.816,1.698c-2.87,0.405-6.158,0.437-9.713-0.115        c0.833-1.43-3.672-2.167-8.652-4.012c-2.481-0.941-5.075-2.143-7.2-3.459c-2.103-1.355-3.751-2.763-4.412-3.97        c-5.291-2.947-9.62-7.415-13.114-12.602c-3.51-5.212-6.152-11.212-8.22-17.917c-0.421,2.748-0.726,1.786-1.204,0.274        c-0.495-1.492-0.968-3.544-2.074-2.834c-0.463-1.646-0.69-2.809-0.835-3.587c-0.107-0.786-0.118-1.191-0.062-1.354        c0,0-0.003-0.65-0.007-1.625c0.021-0.478,0.044-1.034,0.069-1.63c0.025-0.595,0.041-1.206,0.108-1.899        c0.055-0.674,0.11-1.348,0.162-1.979c0.065-0.601,0.125-1.161,0.177-1.641c0.108-1.009,0.18-1.682,0.18-1.682        c0.319-1.28,0.479-0.444,0.625,0.671c0.073,0.557,0.144,1.184,0.229,1.649c0.042,0.232,0.089,0.425,0.142,0.549l0.02,0.044        l0.01,0.019l0.005,0.009l0.001,0.002c-0.002-0.052,0.005,0.117-0.005-0.116l0,0.001l0,0.001l0.003,0.004        c0.015,0.021,0.029,0.038,0.044,0.05c0.03,0.023,0.062,0.025,0.095,0.004c0.003-0.44,0.006-0.837,0.008-1.195        c0.01-0.394,0.019-0.746,0.026-1.061c0.024-0.629,0.062-1.11,0.108-1.485c0.095-0.751,0.229-1.079,0.38-1.326        c0.303-0.493,0.673-0.661,0.924-3.232c-0.844,1.075-1.33-2.657-1.124-7.079l-0.948,6.248        c-1.613-10.783,1.782-9.412,0.179-20.283l0.869,3.427c-0.616-5.583-0.58-20.646-2.703-26.076        c0.254-0.999,0.885-2.326,1.132,0.133c-0.091-13.385-2.949-29.715-2.039-40.145l0.626,0.997        c-0.245-2.491-1.248-4.313-0.736-7.453c0.251,0.153,0.625,0.987,0.627-0.17c-0.244-1.314-1.239-6.598-0.985-9.915l0.754,2.806        c0.407-13.068-2.215-19.976-2.941-30.903c1.761-0.023,2.037-10.306,2.174-15.438l0.254,0.172        c-0.22-15.198-2.203-25.765-3.3-39.813c1.659-8.789-0.053-29.605,0.613-43.673c-0.257,2.156-1.381-0.309-1.63-2.8        c0.262-3.304-1.484-9.07,0.145-8.594l0.003,1.175c1.512-2.527,0.896-9.286,0.787-14.571l-2.137-0.811        c2.672-13.915-2.173-36.192,0.36-43.817c-0.625-3.319-0.738-7.453-1.36-10.745l1.138,0.146        c0.022-9.251,0.032-13.87-0.568-25.289l0.876,2.307c-0.114-6.447-3.499-8.043-3.737-13.986c0,0,0.41-0.461,0.819-0.923        c0.421-0.428,0.842-0.856,0.842-0.856c-0.084-2.613,0.214-5.222,0.6-7.795c0.463-2.564,1.081-5.087,1.853-7.549        c1.568-4.925,3.602-9.574,5.714-14.292c0.124,0.28,0.361,0.791-0.433,2.239c1.219-2.08,4.041-5.781,6.655-8.54        c1.283-1.405,2.468-2.616,3.134-3.551c0.702-0.892,0.879-1.527,0.165-1.679c0.552,0.535,2.529-1.213,5.188-3.252        c2.627-2.075,6.013-4.402,8.545-5.758l-0.376,1.369c0.475-0.399,0.892-0.75,1.268-1.067c0.393-0.3,0.744-0.568,1.07-0.818        c0.662-0.497,1.235-0.931,1.904-1.287c1.328-0.737,2.935-1.486,6.271-2.306c1.623-0.165,1.538,0.614-0.602,0.736        c0.672-0.054,1.232-0.132,1.719-0.205c0.49-0.056,0.901-0.127,1.265-0.21c0.728-0.155,1.26-0.397,1.842-0.564        c0.58-0.183,1.2-0.369,2.089-0.509c0.897-0.112,1.985-0.157,3.652-0.027c0,0-0.16,0.042-0.401,0.105        c-0.238,0.065-0.527,0.173-0.825,0.271c-0.585,0.2-1.171,0.399-1.171,0.399c0.667-0.021,1.244-0.04,1.749-0.056        c0.546-0.007,1.014-0.013,1.422-0.018c0.413-0.012,0.767-0.032,1.08-0.06c0.157-0.017,0.304-0.032,0.443-0.047        c0.07-0.01,0.138-0.019,0.204-0.028l0.049-0.008l0.025-0.003l0.006-0.001l0.003,0c0.017,0-0.136-0.004-0.071-0.002h0.001        l0.012-0.002l0.097-0.013c1.019-0.148,1.715-0.423,3.332-0.774c3.673-0.301,11.017,0.722,11.834,1.763        c0.809-0.583,4.024-1.277,7.438-0.849c0.448,0.399-0.809,0.585-1.442,0.675c9.691,1.147,14.505-0.717,21.147,0.645        c0.123,0.374,0.551,0.576,1.101,0.709c-7.721-0.335-13.936-0.646-13.35-0.703c-0.041,1.026,6.188,1.457,1.169,2.676        c5.038-0.573,13.667-1.913,19.728-1.187c0.289,0.111,0.574,0.22,0.788,0.387l-0.633,0.09c1.399,0.159,2.659,0.113,3.849-0.012        c1.933,0.246,3.161,0.42,5.022,0.509c0.686,0.879,7.135,0.745,10.242,0.911c-0.211-1.134,3.853-0.791,0.075-1.871        c0.492,0.099-0.592,0.11-2.662,0.075c-0.469,0.014-1.02,0.009-1.33,0.063c0.061-0.029,0.136-0.061,0.215-0.09        c-2.041-0.062-4.706-0.142-7.734-0.234c2.48-0.473,5.068-0.85,8.482-0.089c1.625-0.658,3.41-1.331,4.415-1.639        c4.193,1.737,12.362,2.912,13.465,3.924c9.521-0.25,22.388,0.479,28.443-1.393c2.712-0.163,3.08,0.729,4.076,1.102        c-1.567,0.149-3.419,0.043-4.274,0.313c5.418-0.326,16.002,0.429,17.35-0.994c6.778,0.938-3.878,1.204,5.48,1.337l-1.279,0.4        c18.297,3.092,30.052-2.567,50.322,1.273c-1.405-0.242-2.107-0.356-2.387-0.615c23.194,2.264,47.958,0.665,70.813,3.698        c6.504,0.687,7.248-0.227,11.257-0.783l1.363,1.263l6.86-1.12c9.688-0.634,16.591,3.63,28.884,2.19l-1.545-0.876        c4.382,0.33,13.917,0.077,13.146,0.982c0.455-0.13,1.474-0.788,3.171-0.295l0.108,0.637l10.818-0.651        c8.336,0.791-1.407,2.455,10.78,3.065c4.54-0.062,12.977-1.322,11.293-1.813c-1.828-0.104-4.657-0.58-4.77-1.219l4.158-0.163        c0.827-1.831,4.09-3.609-6.033-5.316l-7.135,0.854l-2.247-0.994l5.968,0.182c-3.35-0.985-5.525-0.32-7.949,0.1        c-0.549-0.502-1.531-0.878-2.932-1.113l-7.031,1.499c-0.814-0.762,3.18-1.32-1.477-1.909        c-3.293,0.695,3.063,1.757-2.356,2.084c-3.359-0.982-2.342-1.631-6.351-1.068c-0.54-0.501,0.316-0.773,1.901-0.92        c-3.567,0.433-9.387-0.132-11.256,0.784c-3.493-1.186-11.974-0.208-11.555-1.955c-1.131,0.377-6.296,1.133-9.555,1.076        c6.031-1.871-12.179-0.611-10.515-2.809c-4.479,1.72-15.932,0.206-23.769,0.946c0.441-0.133,1.312-0.404,1.995-0.28        c-4.382-0.333-5.634-0.956-8.439-1.426c-0.627,1.543-7.474,1.628-11.194,2.447c-5.317-1.727,3.339-1.708,1.709-3.227        c0.22,1.28-9.396,0.893-7.608,2.023c-4.075-1.099-3.526-0.595-5.593-1.978c-0.798,1.93-3.842,0.178-7.302,1.245        c-5.913-1.203-1.458-1.896-8.021-1.561C280.355,22.779,286.198,22.317,286.198,22.317z M130.563,19.484        c0-0.011,0.001-0.019,0.001-0.022c1.34,0.027,2.482,0.05,3.212,0.065C133.106,19.517,132.179,19.505,130.563,19.484z         M117.495,18.979c1.589,0.107,3.57,0.194,5.666,0.271c0.443,0.407-0.068,0.786-1.383,0.713        C122.502,19.732,119.43,19.384,117.495,18.979z M144.824,27.87c-2.074,0.076-2.758-0.172-3.033-0.414        c0.978,0.02,2.121,0.027,3.624,0.01c0.061-0.04,0.187-0.083,0.249-0.128C145.457,27.545,145.224,27.737,144.824,27.87z" style="fill:#373737;"/><path d="M148.602,26.545c0.299-0.013,0.466-0.054,0.856-0.048c-0.418-0.116-0.818-0.217-1.223-0.302        c-0.257,0.111-0.519,0.224-0.748,0.323C147.863,26.527,148.253,26.537,148.602,26.545z" style="fill:#373737;"/><path d="M482.671,261.273l-0.034,0.274c0.052-0.228,0.103-0.438,0.178-0.573        C482.754,261.156,482.719,261.155,482.671,261.273z" style="fill:#373737;"/><polygon points="18.745,130.134 19.027,130.107 18.747,128.972       " style="fill:#373737;"/><path d="M488.777,189.4c0.104-0.135,0.215-0.402,0.318-0.936        C489.02,188.503,488.904,188.908,488.777,189.4z" style="fill:#373737;"/><path d="M490.002,158.309l0.537-4.386C490.252,155.819,490.101,157.201,490.002,158.309z" style="fill:#373737;"/><path d="M491.306,134.416c-0.188-0.309-0.333-0.4-0.466-0.483c-0.005,0.019-0.008,0.032-0.011,0.046        L491.306,134.416z" style="fill:#373737;"/><path d="M416.58,482.398c-0.321,0.019-0.637,0.046-0.92,0.088        C413.505,482.79,414.974,482.646,416.58,482.398z" style="fill:#373737;"/><path d="M481.656,401.413c0.166,1.208,0.33,2.397,0.417,3.654        C482.223,403.057,482.294,401.493,481.656,401.413z" style="fill:#373737;"/><path d="M290.34,488.803c0.013-0.008-0.001-0.01,0.013-0.021c-0.271,0.012-0.509,0.021-0.779,0.031        L290.34,488.803z" style="fill:#373737;"/><path d="M481.89,410.327c0.286-2.006,0.291-3.691,0.184-5.26        C481.947,406.716,481.771,408.657,481.89,410.327z" style="fill:#373737;"/><path d="M460.725,39.178l-1.054-0.609c-0.017,0.075-0.109,0.094-0.212,0.092L460.725,39.178z" style="fill:#373737;"/><path d="M459.459,38.661c0,0-0.313-0.127-0.627-0.255c-0.311-0.132-0.63-0.245-0.63-0.246        C458.758,38.43,459.229,38.685,459.459,38.661z" style="fill:#373737;"/><path d="M455.525,37.213l2.677,0.946C457.319,37.74,456.234,37.191,455.525,37.213z" style="fill:#373737;"/><path d="M484.334,62.228l0.54,0.122C484.697,62.212,484.518,62.162,484.334,62.228z" style="fill:#373737;"/><path d="M488.912,71.277c-0.368-1.166-0.83-2.63-1.329-4.21c-0.295-0.774-0.617-1.574-0.978-2.363        c-0.365-0.786-0.82-1.532-1.294-2.244l-0.438-0.109c0.657,0.538,1.415,2.287,2.062,4.156        C487.599,68.37,488.195,70.321,488.912,71.277z" style="fill:#373737;"/><path d="M487.071,112.048l0.577-8.049c-0.478,1.395-1.119,3.229-1.109-0.438        C484.926,113.68,487.575,101.495,487.071,112.048z" style="fill:#373737;"/><path d="M485.66,137.021c-0.066-4.336-0.632,0.031-0.871-0.206        C485.1,139.575,485.18,140.244,485.66,137.021z" style="fill:#373737;"/><path d="M480.013,317.636l-1.01-0.468C479.045,320.512,479.398,317.212,480.013,317.636z" style="fill:#373737;"/><polygon points="484.219,352.325 484.956,349.098 484.067,347.522       " style="fill:#373737;"/><polygon points="476.297,372.495 476.196,371.032 476.394,376.612       " style="fill:#373737;"/><path d="M254.812,480.339l1.059,1.22C258.118,481.242,258.533,479.808,254.812,480.339z" style="fill:#373737;"/><path d="M123.951,486.857c-1.451-0.572-5.149-0.83-7.394-0.12        C119.504,486.706,122.458,487.08,123.951,486.857z" style="fill:#373737;"/><polygon points="29.848,164.576 30.346,167.197 29.851,162.244       " style="fill:#373737;"/></g></g></g></g></g></g><g id="Layer_1"/></svg>