<?xml version="1.0" encoding="iso-8859-1"?>
<!-- Generator: Adobe Illustrator 16.0.0, SVG Export Plug-In . SVG Version: 6.00 Build 0)  -->
<!DOCTYPE svg PUBLIC "-//W3C//DTD SVG 1.1//EN" "http://www.w3.org/Graphics/SVG/1.1/DTD/svg11.dtd">
<svg version="1.1" id="Capa_1" xmlns="http://www.w3.org/2000/svg" xmlns:xlink="http://www.w3.org/1999/xlink" x="0px" y="0px"
	 width="460.603px" height="460.603px" viewBox="0 0 460.603 460.603" style="enable-background:new 0 0 460.603 460.603;"
	 xml:space="preserve">
<g>
	<g>
		<path d="M110.017,43.465v373.681c0,23.968,19.497,43.457,43.457,43.457h153.655c23.963,0,43.457-19.499,43.457-43.457V43.465
			C350.586,19.497,331.092,0,307.129,0H153.474C129.514,0.008,110.017,19.505,110.017,43.465z M307.129,448.751H153.474
			c-17.427,0-31.607-14.183-31.607-31.605c0,0,0-0.335,0-0.752c0-0.421,3.539-0.751,7.898-0.751h201.073c4.361,0,7.9,0.33,7.9,0.751
			v0.752C338.738,434.568,324.566,448.751,307.129,448.751z M330.838,409.717H129.765c-4.359,0-7.898-2.849-7.898-6.368
			c0-3.514,2.653-6.367,5.934-6.367h5.931h193.146c0,0,2.655,0,5.936,0s5.932,2.854,5.932,6.367
			C338.738,406.873,335.204,409.717,330.838,409.717z M136.694,383.164V84.625c0-4.362,3.539-7.901,7.901-7.901h171.419
			c4.362,0,7.901,3.54,7.901,7.901v298.54c0,4.361-3.539,7.901-7.901,7.901H144.595
			C140.226,391.065,136.694,387.525,136.694,383.164z M307.129,11.857c17.427,0,31.609,14.18,31.609,31.615v339.701
			c0,4.362-1.995,7.901-4.447,7.901c-2.458,0-4.459-3.539-4.459-7.901V73.76c0-1.635-1.325-2.96-2.961-2.96H133.73
			c-1.635,0-2.96,1.325-2.96,2.96v309.404c0,4.361-1.993,7.901-4.448,7.901c-2.458,0-4.449-3.54-4.449-7.901V43.465
			c0-17.435,14.18-31.615,31.608-31.615h153.647V11.857z"/>
		<path d="M289.686,44.666c5.941,0,10.785-4.834,10.785-10.783c0-5.949-4.839-10.783-10.785-10.783s-10.78,4.834-10.78,10.783
			C278.905,39.821,283.739,44.666,289.686,44.666z M289.686,29.023c2.682,0,4.859,2.181,4.859,4.859
			c0,2.676-2.178,4.857-4.859,4.857c-2.676,0-4.859-2.182-4.859-4.857C284.826,31.204,287.01,29.023,289.686,29.023z"/>
		<path d="M207.628,36.846h45.349c1.636,0,2.961-1.328,2.961-2.963s-1.325-2.963-2.961-2.963h-45.349
			c-1.635,0-2.963,1.328-2.963,2.963S205.993,36.846,207.628,36.846z"/>
	</g>
</g>
<g>
</g>
<g>
</g>
<g>
</g>
<g>
</g>
<g>
</g>
<g>
</g>
<g>
</g>
<g>
</g>
<g>
</g>
<g>
</g>
<g>
</g>
<g>
</g>
<g>
</g>
<g>
</g>
<g>
</g>
</svg>
